<?xml version="1.0" encoding="utf-8" standalone="no"?>
<!DOCTYPE svg PUBLIC "-//W3C//DTD SVG 1.1//EN"
  "http://www.w3.org/Graphics/SVG/1.1/DTD/svg11.dtd">
<!-- Created with matplotlib (http://matplotlib.org/) -->
<svg height="720pt" version="1.1" viewBox="0 0 576 720" width="576pt" xmlns="http://www.w3.org/2000/svg" xmlns:xlink="http://www.w3.org/1999/xlink">
 <defs>
  <style type="text/css">
*{stroke-linecap:butt;stroke-linejoin:round;}
  </style>
 </defs>
 <g id="figure_1">
  <g id="patch_1">
   <path d="
M0 720
L576 720
L576 0
L0 0
z
" style="fill:#ffffff;"/>
  </g>
  <g id="axes_1">
   <g id="patch_2">
    <path d="
M72 197.217
L518.4 197.217
L518.4 72
L72 72
z
" style="fill:#ffffff;"/>
   </g>
   <g id="PolyCollection_1">
    <defs>
     <path d="
M72 -522.784
L72 -522.783
L76.5091 -522.783
L81.0182 -522.783
L85.5273 -522.783
L90.0364 -522.783
L94.5455 -522.783
L99.0545 -522.783
L103.564 -522.783
L108.073 -522.783
L112.582 -522.783
L117.091 -522.783
L121.6 -522.783
L126.109 -522.783
L130.618 -522.783
L135.127 -522.783
L139.636 -522.783
L144.145 -522.783
L148.655 -522.783
L153.164 -522.783
L157.673 -522.783
L162.182 -522.783
L166.691 -522.783
L171.2 -522.783
L175.709 -522.783
L180.218 -522.783
L184.727 -522.783
L189.236 -522.783
L193.745 -522.783
L198.255 -522.783
L202.764 -522.783
L207.273 -522.783
L211.782 -522.783
L216.291 -522.783
L220.8 -522.783
L225.309 -522.783
L229.818 -522.783
L234.327 -522.783
L238.836 -522.783
L243.345 -522.783
L247.855 -522.783
L252.364 -522.783
L256.873 -522.783
L261.382 -522.783
L265.891 -522.783
L270.4 -522.783
L274.909 -522.783
L279.418 -522.783
L283.927 -522.783
L288.436 -522.783
L292.945 -522.783
L297.455 -522.783
L301.964 -522.783
L306.473 -522.783
L310.982 -522.783
L315.491 -522.783
L320 -522.783
L324.509 -522.783
L329.018 -522.783
L333.527 -522.783
L338.036 -522.783
L342.545 -522.783
L347.055 -522.783
L351.564 -522.783
L356.073 -522.783
L360.582 -522.783
L365.091 -522.783
L369.6 -522.783
L374.109 -522.783
L378.618 -522.783
L383.127 -522.783
L387.636 -522.783
L392.145 -522.783
L396.655 -522.783
L401.164 -522.783
L405.673 -522.783
L410.182 -522.783
L414.691 -522.783
L419.2 -522.783
L423.709 -522.783
L428.218 -522.783
L432.727 -522.783
L437.236 -522.783
L441.745 -522.783
L446.255 -522.783
L450.764 -522.783
L455.273 -522.783
L459.782 -522.783
L464.291 -522.783
L468.8 -522.783
L473.309 -522.783
L477.818 -522.783
L482.327 -522.783
L486.836 -522.783
L491.345 -522.783
L495.855 -522.783
L500.364 -522.783
L504.873 -522.783
L509.382 -522.783
L513.891 -522.783
L518.4 -522.783
L518.4 -522.783
L518.4 -522.783
L513.891 -522.783
L509.382 -522.783
L504.873 -522.783
L500.364 -522.783
L495.855 -522.783
L491.345 -522.783
L486.836 -522.783
L482.327 -522.783
L477.818 -522.783
L473.309 -522.783
L468.8 -522.783
L464.291 -522.783
L459.782 -522.783
L455.273 -522.783
L450.764 -522.783
L446.255 -522.783
L441.745 -522.783
L437.236 -522.783
L432.727 -522.783
L428.218 -522.783
L423.709 -522.783
L419.2 -522.783
L414.691 -522.783
L410.182 -522.783
L405.673 -522.783
L401.164 -522.783
L396.655 -522.783
L392.145 -522.783
L387.636 -522.783
L383.127 -522.783
L378.618 -522.783
L374.109 -522.783
L369.6 -522.783
L365.091 -522.783
L360.582 -522.783
L356.073 -522.783
L351.564 -522.783
L347.055 -522.783
L342.545 -522.783
L338.036 -522.783
L333.527 -522.783
L329.018 -522.783
L324.509 -522.783
L320 -522.783
L315.491 -522.783
L310.982 -522.783
L306.473 -522.783
L301.964 -522.783
L297.455 -522.783
L292.945 -522.783
L288.436 -522.784
L283.927 -522.786
L279.418 -522.79
L274.909 -522.801
L270.4 -522.825
L265.891 -522.874
L261.382 -522.975
L256.873 -523.169
L252.364 -523.531
L247.855 -524.174
L243.345 -525.267
L238.836 -527.046
L234.327 -529.812
L229.818 -533.917
L225.309 -539.729
L220.8 -547.563
L216.291 -557.598
L211.782 -569.778
L207.273 -583.732
L202.764 -598.731
L198.255 -613.709
L193.745 -627.373
L189.236 -638.373
L184.727 -645.521
L180.218 -648
L175.709 -645.521
L171.2 -638.373
L166.691 -627.373
L162.182 -613.709
L157.673 -598.731
L153.164 -583.732
L148.655 -569.778
L144.145 -557.598
L139.636 -547.563
L135.127 -539.729
L130.618 -533.917
L126.109 -529.812
L121.6 -527.046
L117.091 -525.267
L112.582 -524.174
L108.073 -523.531
L103.564 -523.169
L99.0545 -522.975
L94.5455 -522.874
L90.0364 -522.825
L85.5273 -522.801
L81.0182 -522.79
L76.5091 -522.786
L72 -522.784
z
" id="C0_0_5b2b214814"/>
    </defs>
    <g clip-path="url(#p8ef58222ed)">
     <use style="fill:#0000ff;fill-opacity:0.4;stroke:#0000ff;stroke-opacity:0.4;" x="0.0" xlink:href="#C0_0_5b2b214814" y="720.0"/>
    </g>
   </g>
   <g id="line2d_1">
    <path clip-path="url(#p8ef58222ed)" d="
M72 197.216
L76.5091 197.214
L81.0182 197.21
L85.5273 197.199
L90.0364 197.175
L94.5455 197.126
L99.0545 197.025
L103.564 196.831
L108.073 196.469
L112.582 195.826
L117.091 194.733
L121.6 192.954
L126.109 190.188
L130.618 186.083
L135.127 180.271
L139.636 172.437
L144.145 162.402
L148.655 150.222
L153.164 136.268
L157.673 121.269
L162.182 106.291
L166.691 92.627
L171.2 81.6272
L175.709 74.4795
L180.218 72
L184.727 74.4795
L189.236 81.6272
L193.745 92.627
L198.255 106.291
L202.764 121.269
L207.273 136.268
L211.782 150.222
L216.291 162.402
L220.8 172.437
L225.309 180.271
L229.818 186.083
L234.327 190.188
L238.836 192.954
L243.345 194.733
L247.855 195.826
L252.364 196.469
L256.873 196.831
L261.382 197.025
L265.891 197.126
L270.4 197.175
L274.909 197.199
L279.418 197.21
L283.927 197.214
L288.436 197.216
L292.945 197.217
L297.455 197.217
L301.964 197.217
L306.473 197.217
L310.982 197.217
L315.491 197.217
L320 197.217
L324.509 197.217
L329.018 197.217
L333.527 197.217
L338.036 197.217
L342.545 197.217
L347.055 197.217
L351.564 197.217
L356.073 197.217
L360.582 197.217
L365.091 197.217
L369.6 197.217
L374.109 197.217
L378.618 197.217
L383.127 197.217
L387.636 197.217
L392.145 197.217
L396.655 197.217
L401.164 197.217
L405.673 197.217
L410.182 197.217
L414.691 197.217
L419.2 197.217
L423.709 197.217
L428.218 197.217
L432.727 197.217
L437.236 197.217
L441.745 197.217
L446.255 197.217
L450.764 197.217
L455.273 197.217
L459.782 197.217
L464.291 197.217
L468.8 197.217
L473.309 197.217
L477.818 197.217
L482.327 197.217
L486.836 197.217
L491.345 197.217
L495.855 197.217
L500.364 197.217
L504.873 197.217
L509.382 197.217
L513.891 197.217
L518.4 197.217" style="fill:none;stroke:#0000ff;stroke-linecap:square;"/>
   </g>
   <g id="matplotlib.axis_1">
    <g id="xtick_1">
     <g id="line2d_2">
      <path clip-path="url(#p8ef58222ed)" d="
M180.218 197.217
L180.218 72" style="fill:none;stroke:#000000;stroke-dasharray:1.000000,3.000000;stroke-dashoffset:0.0;stroke-width:0.5;"/>
     </g>
     <g id="line2d_3">
      <defs>
       <path d="
M0 0
L0 -4" id="m93b0483c22" style="stroke:#000000;stroke-width:0.5;"/>
      </defs>
      <g>
       <use style="stroke:#000000;stroke-width:0.5;" x="180.218181818" xlink:href="#m93b0483c22" y="197.217391304"/>
      </g>
     </g>
     <g id="line2d_4">
      <defs>
       <path d="
M0 0
L0 4" id="m741efc42ff" style="stroke:#000000;stroke-width:0.5;"/>
      </defs>
      <g>
       <use style="stroke:#000000;stroke-width:0.5;" x="180.218181818" xlink:href="#m741efc42ff" y="72.0"/>
      </g>
     </g>
    </g>
    <g id="xtick_2">
     <g id="line2d_5">
      <path clip-path="url(#p8ef58222ed)" d="
M292.945 197.217
L292.945 72" style="fill:none;stroke:#000000;stroke-dasharray:1.000000,3.000000;stroke-dashoffset:0.0;stroke-width:0.5;"/>
     </g>
     <g id="line2d_6">
      <g>
       <use style="stroke:#000000;stroke-width:0.5;" x="292.945454545" xlink:href="#m93b0483c22" y="197.217391304"/>
      </g>
     </g>
     <g id="line2d_7">
      <g>
       <use style="stroke:#000000;stroke-width:0.5;" x="292.945454545" xlink:href="#m741efc42ff" y="72.0"/>
      </g>
     </g>
    </g>
    <g id="xtick_3">
     <g id="line2d_8">
      <path clip-path="url(#p8ef58222ed)" d="
M405.673 197.217
L405.673 72" style="fill:none;stroke:#000000;stroke-dasharray:1.000000,3.000000;stroke-dashoffset:0.0;stroke-width:0.5;"/>
     </g>
     <g id="line2d_9">
      <g>
       <use style="stroke:#000000;stroke-width:0.5;" x="405.672727273" xlink:href="#m93b0483c22" y="197.217391304"/>
      </g>
     </g>
     <g id="line2d_10">
      <g>
       <use style="stroke:#000000;stroke-width:0.5;" x="405.672727273" xlink:href="#m741efc42ff" y="72.0"/>
      </g>
     </g>
    </g>
    <g id="xtick_4">
     <g id="line2d_11">
      <path clip-path="url(#p8ef58222ed)" d="
M518.4 197.217
L518.4 72" style="fill:none;stroke:#000000;stroke-dasharray:1.000000,3.000000;stroke-dashoffset:0.0;stroke-width:0.5;"/>
     </g>
     <g id="line2d_12">
      <g>
       <use style="stroke:#000000;stroke-width:0.5;" x="518.4" xlink:href="#m93b0483c22" y="197.217391304"/>
      </g>
     </g>
     <g id="line2d_13">
      <g>
       <use style="stroke:#000000;stroke-width:0.5;" x="518.4" xlink:href="#m741efc42ff" y="72.0"/>
      </g>
     </g>
    </g>
   </g>
   <g id="matplotlib.axis_2">
    <g id="ytick_1">
     <g id="line2d_14">
      <path clip-path="url(#p8ef58222ed)" d="
M72 197.217
L518.4 197.217" style="fill:none;stroke:#000000;stroke-dasharray:1.000000,3.000000;stroke-dashoffset:0.0;stroke-width:0.5;"/>
     </g>
     <g id="line2d_15">
      <defs>
       <path d="
M0 0
L4 0" id="m728421d6d4" style="stroke:#000000;stroke-width:0.5;"/>
      </defs>
      <g>
       <use style="stroke:#000000;stroke-width:0.5;" x="72.0" xlink:href="#m728421d6d4" y="197.217391304"/>
      </g>
     </g>
     <g id="line2d_16">
      <defs>
       <path d="
M0 0
L-4 0" id="mcb0005524f" style="stroke:#000000;stroke-width:0.5;"/>
      </defs>
      <g>
       <use style="stroke:#000000;stroke-width:0.5;" x="518.4" xlink:href="#mcb0005524f" y="197.217391304"/>
      </g>
     </g>
     <g id="text_1">
      <!-- 0.00 -->
      <defs>
       <path d="
M31.7812 66.4062
Q24.1719 66.4062 20.3281 58.9062
Q16.5 51.4219 16.5 36.375
Q16.5 21.3906 20.3281 13.8906
Q24.1719 6.39062 31.7812 6.39062
Q39.4531 6.39062 43.2812 13.8906
Q47.125 21.3906 47.125 36.375
Q47.125 51.4219 43.2812 58.9062
Q39.4531 66.4062 31.7812 66.4062
M31.7812 74.2188
Q44.0469 74.2188 50.5156 64.5156
Q56.9844 54.8281 56.9844 36.375
Q56.9844 17.9688 50.5156 8.26562
Q44.0469 -1.42188 31.7812 -1.42188
Q19.5312 -1.42188 13.0625 8.26562
Q6.59375 17.9688 6.59375 36.375
Q6.59375 54.8281 13.0625 64.5156
Q19.5312 74.2188 31.7812 74.2188" id="BitstreamVeraSans-Roman-30"/>
       <path d="
M10.6875 12.4062
L21 12.4062
L21 0
L10.6875 0
z
" id="BitstreamVeraSans-Roman-2e"/>
      </defs>
      <g transform="translate(34.4925 201.632391304)scale(0.16 -0.16)">
       <use xlink:href="#BitstreamVeraSans-Roman-30"/>
       <use x="63.623046875" xlink:href="#BitstreamVeraSans-Roman-2e"/>
       <use x="95.41015625" xlink:href="#BitstreamVeraSans-Roman-30"/>
       <use x="159.033203125" xlink:href="#BitstreamVeraSans-Roman-30"/>
      </g>
     </g>
    </g>
    <g id="ytick_2">
     <g id="line2d_17">
      <path clip-path="url(#p8ef58222ed)" d="
M72 165.913
L518.4 165.913" style="fill:none;stroke:#000000;stroke-dasharray:1.000000,3.000000;stroke-dashoffset:0.0;stroke-width:0.5;"/>
     </g>
     <g id="line2d_18">
      <g>
       <use style="stroke:#000000;stroke-width:0.5;" x="72.0" xlink:href="#m728421d6d4" y="165.913043478"/>
      </g>
     </g>
     <g id="line2d_19">
      <g>
       <use style="stroke:#000000;stroke-width:0.5;" x="518.4" xlink:href="#mcb0005524f" y="165.913043478"/>
      </g>
     </g>
     <g id="text_2">
      <!-- 0.25 -->
      <defs>
       <path d="
M19.1875 8.29688
L53.6094 8.29688
L53.6094 0
L7.32812 0
L7.32812 8.29688
Q12.9375 14.1094 22.625 23.8906
Q32.3281 33.6875 34.8125 36.5312
Q39.5469 41.8438 41.4219 45.5312
Q43.3125 49.2188 43.3125 52.7812
Q43.3125 58.5938 39.2344 62.25
Q35.1562 65.9219 28.6094 65.9219
Q23.9688 65.9219 18.8125 64.3125
Q13.6719 62.7031 7.8125 59.4219
L7.8125 69.3906
Q13.7656 71.7812 18.9375 73
Q24.125 74.2188 28.4219 74.2188
Q39.75 74.2188 46.4844 68.5469
Q53.2188 62.8906 53.2188 53.4219
Q53.2188 48.9219 51.5312 44.8906
Q49.8594 40.875 45.4062 35.4062
Q44.1875 33.9844 37.6406 27.2188
Q31.1094 20.4531 19.1875 8.29688" id="BitstreamVeraSans-Roman-32"/>
       <path d="
M10.7969 72.9062
L49.5156 72.9062
L49.5156 64.5938
L19.8281 64.5938
L19.8281 46.7344
Q21.9688 47.4688 24.1094 47.8281
Q26.2656 48.1875 28.4219 48.1875
Q40.625 48.1875 47.75 41.5
Q54.8906 34.8125 54.8906 23.3906
Q54.8906 11.625 47.5625 5.09375
Q40.2344 -1.42188 26.9062 -1.42188
Q22.3125 -1.42188 17.5469 -0.640625
Q12.7969 0.140625 7.71875 1.70312
L7.71875 11.625
Q12.1094 9.23438 16.7969 8.0625
Q21.4844 6.89062 26.7031 6.89062
Q35.1562 6.89062 40.0781 11.3281
Q45.0156 15.7656 45.0156 23.3906
Q45.0156 31 40.0781 35.4375
Q35.1562 39.8906 26.7031 39.8906
Q22.75 39.8906 18.8125 39.0156
Q14.8906 38.1406 10.7969 36.2812
z
" id="BitstreamVeraSans-Roman-35"/>
      </defs>
      <g transform="translate(34.8275 170.328043478)scale(0.16 -0.16)">
       <use xlink:href="#BitstreamVeraSans-Roman-30"/>
       <use x="63.623046875" xlink:href="#BitstreamVeraSans-Roman-2e"/>
       <use x="95.41015625" xlink:href="#BitstreamVeraSans-Roman-32"/>
       <use x="159.033203125" xlink:href="#BitstreamVeraSans-Roman-35"/>
      </g>
     </g>
    </g>
    <g id="ytick_3">
     <g id="line2d_20">
      <path clip-path="url(#p8ef58222ed)" d="
M72 134.609
L518.4 134.609" style="fill:none;stroke:#000000;stroke-dasharray:1.000000,3.000000;stroke-dashoffset:0.0;stroke-width:0.5;"/>
     </g>
     <g id="line2d_21">
      <g>
       <use style="stroke:#000000;stroke-width:0.5;" x="72.0" xlink:href="#m728421d6d4" y="134.608695652"/>
      </g>
     </g>
     <g id="line2d_22">
      <g>
       <use style="stroke:#000000;stroke-width:0.5;" x="518.4" xlink:href="#mcb0005524f" y="134.608695652"/>
      </g>
     </g>
     <g id="text_3">
      <!-- 0.50 -->
      <g transform="translate(34.4925 139.023695652)scale(0.16 -0.16)">
       <use xlink:href="#BitstreamVeraSans-Roman-30"/>
       <use x="63.623046875" xlink:href="#BitstreamVeraSans-Roman-2e"/>
       <use x="95.41015625" xlink:href="#BitstreamVeraSans-Roman-35"/>
       <use x="159.033203125" xlink:href="#BitstreamVeraSans-Roman-30"/>
      </g>
     </g>
    </g>
    <g id="ytick_4">
     <g id="line2d_23">
      <path clip-path="url(#p8ef58222ed)" d="
M72 103.304
L518.4 103.304" style="fill:none;stroke:#000000;stroke-dasharray:1.000000,3.000000;stroke-dashoffset:0.0;stroke-width:0.5;"/>
     </g>
     <g id="line2d_24">
      <g>
       <use style="stroke:#000000;stroke-width:0.5;" x="72.0" xlink:href="#m728421d6d4" y="103.304347826"/>
      </g>
     </g>
     <g id="line2d_25">
      <g>
       <use style="stroke:#000000;stroke-width:0.5;" x="518.4" xlink:href="#mcb0005524f" y="103.304347826"/>
      </g>
     </g>
     <g id="text_4">
      <!-- 0.75 -->
      <defs>
       <path d="
M8.20312 72.9062
L55.0781 72.9062
L55.0781 68.7031
L28.6094 0
L18.3125 0
L43.2188 64.5938
L8.20312 64.5938
z
" id="BitstreamVeraSans-Roman-37"/>
      </defs>
      <g transform="translate(34.8275 107.719347826)scale(0.16 -0.16)">
       <use xlink:href="#BitstreamVeraSans-Roman-30"/>
       <use x="63.623046875" xlink:href="#BitstreamVeraSans-Roman-2e"/>
       <use x="95.41015625" xlink:href="#BitstreamVeraSans-Roman-37"/>
       <use x="159.033203125" xlink:href="#BitstreamVeraSans-Roman-35"/>
      </g>
     </g>
    </g>
    <g id="ytick_5">
     <g id="line2d_26">
      <path clip-path="url(#p8ef58222ed)" d="
M72 72
L518.4 72" style="fill:none;stroke:#000000;stroke-dasharray:1.000000,3.000000;stroke-dashoffset:0.0;stroke-width:0.5;"/>
     </g>
     <g id="line2d_27">
      <g>
       <use style="stroke:#000000;stroke-width:0.5;" x="72.0" xlink:href="#m728421d6d4" y="72.0"/>
      </g>
     </g>
     <g id="line2d_28">
      <g>
       <use style="stroke:#000000;stroke-width:0.5;" x="518.4" xlink:href="#mcb0005524f" y="72.0"/>
      </g>
     </g>
     <g id="text_5">
      <!-- 1.00 -->
      <defs>
       <path d="
M12.4062 8.29688
L28.5156 8.29688
L28.5156 63.9219
L10.9844 60.4062
L10.9844 69.3906
L28.4219 72.9062
L38.2812 72.9062
L38.2812 8.29688
L54.3906 8.29688
L54.3906 0
L12.4062 0
z
" id="BitstreamVeraSans-Roman-31"/>
      </defs>
      <g transform="translate(35.195 76.415)scale(0.16 -0.16)">
       <use xlink:href="#BitstreamVeraSans-Roman-31"/>
       <use x="63.623046875" xlink:href="#BitstreamVeraSans-Roman-2e"/>
       <use x="95.41015625" xlink:href="#BitstreamVeraSans-Roman-30"/>
       <use x="159.033203125" xlink:href="#BitstreamVeraSans-Roman-30"/>
      </g>
     </g>
    </g>
    <g id="text_6">
     <!-- Height -->
     <defs>
      <path d="
M9.42188 54.6875
L18.4062 54.6875
L18.4062 0
L9.42188 0
z

M9.42188 75.9844
L18.4062 75.9844
L18.4062 64.5938
L9.42188 64.5938
z
" id="BitstreamVeraSans-Roman-69"/>
      <path d="
M54.8906 33.0156
L54.8906 0
L45.9062 0
L45.9062 32.7188
Q45.9062 40.4844 42.875 44.3281
Q39.8438 48.1875 33.7969 48.1875
Q26.5156 48.1875 22.3125 43.5469
Q18.1094 38.9219 18.1094 30.9062
L18.1094 0
L9.07812 0
L9.07812 75.9844
L18.1094 75.9844
L18.1094 46.1875
Q21.3438 51.125 25.7031 53.5625
Q30.0781 56 35.7969 56
Q45.2188 56 50.0469 50.1719
Q54.8906 44.3438 54.8906 33.0156" id="BitstreamVeraSans-Roman-68"/>
      <path d="
M56.2031 29.5938
L56.2031 25.2031
L14.8906 25.2031
Q15.4844 15.9219 20.4844 11.0625
Q25.4844 6.20312 34.4219 6.20312
Q39.5938 6.20312 44.4531 7.46875
Q49.3125 8.73438 54.1094 11.2812
L54.1094 2.78125
Q49.2656 0.734375 44.1875 -0.34375
Q39.1094 -1.42188 33.8906 -1.42188
Q20.7969 -1.42188 13.1562 6.1875
Q5.51562 13.8125 5.51562 26.8125
Q5.51562 40.2344 12.7656 48.1094
Q20.0156 56 32.3281 56
Q43.3594 56 49.7812 48.8906
Q56.2031 41.7969 56.2031 29.5938
M47.2188 32.2344
Q47.125 39.5938 43.0938 43.9844
Q39.0625 48.3906 32.4219 48.3906
Q24.9062 48.3906 20.3906 44.1406
Q15.875 39.8906 15.1875 32.1719
z
" id="BitstreamVeraSans-Roman-65"/>
      <path d="
M18.3125 70.2188
L18.3125 54.6875
L36.8125 54.6875
L36.8125 47.7031
L18.3125 47.7031
L18.3125 18.0156
Q18.3125 11.3281 20.1406 9.42188
Q21.9688 7.51562 27.5938 7.51562
L36.8125 7.51562
L36.8125 0
L27.5938 0
Q17.1875 0 13.2344 3.875
Q9.28125 7.76562 9.28125 18.0156
L9.28125 47.7031
L2.6875 47.7031
L2.6875 54.6875
L9.28125 54.6875
L9.28125 70.2188
z
" id="BitstreamVeraSans-Roman-74"/>
      <path d="
M45.4062 27.9844
Q45.4062 37.75 41.375 43.1094
Q37.3594 48.4844 30.0781 48.4844
Q22.8594 48.4844 18.8281 43.1094
Q14.7969 37.75 14.7969 27.9844
Q14.7969 18.2656 18.8281 12.8906
Q22.8594 7.51562 30.0781 7.51562
Q37.3594 7.51562 41.375 12.8906
Q45.4062 18.2656 45.4062 27.9844
M54.3906 6.78125
Q54.3906 -7.17188 48.1875 -13.9844
Q42 -20.7969 29.2031 -20.7969
Q24.4688 -20.7969 20.2656 -20.0938
Q16.0625 -19.3906 12.1094 -17.9219
L12.1094 -9.1875
Q16.0625 -11.3281 19.9219 -12.3438
Q23.7812 -13.375 27.7812 -13.375
Q36.625 -13.375 41.0156 -8.76562
Q45.4062 -4.15625 45.4062 5.17188
L45.4062 9.625
Q42.625 4.78125 38.2812 2.39062
Q33.9375 0 27.875 0
Q17.8281 0 11.6719 7.65625
Q5.51562 15.3281 5.51562 27.9844
Q5.51562 40.6719 11.6719 48.3281
Q17.8281 56 27.875 56
Q33.9375 56 38.2812 53.6094
Q42.625 51.2188 45.4062 46.3906
L45.4062 54.6875
L54.3906 54.6875
z
" id="BitstreamVeraSans-Roman-67"/>
      <path d="
M9.8125 72.9062
L19.6719 72.9062
L19.6719 43.0156
L55.5156 43.0156
L55.5156 72.9062
L65.375 72.9062
L65.375 0
L55.5156 0
L55.5156 34.7188
L19.6719 34.7188
L19.6719 0
L9.8125 0
z
" id="BitstreamVeraSans-Roman-48"/>
     </defs>
     <g transform="translate(26.165 160.078695652)rotate(-90.0)scale(0.16 -0.16)">
      <use xlink:href="#BitstreamVeraSans-Roman-48"/>
      <use x="75.1953125" xlink:href="#BitstreamVeraSans-Roman-65"/>
      <use x="136.71875" xlink:href="#BitstreamVeraSans-Roman-69"/>
      <use x="164.501953125" xlink:href="#BitstreamVeraSans-Roman-67"/>
      <use x="227.978515625" xlink:href="#BitstreamVeraSans-Roman-68"/>
      <use x="291.357421875" xlink:href="#BitstreamVeraSans-Roman-74"/>
     </g>
    </g>
   </g>
   <g id="patch_3">
    <path d="
M72 72
L518.4 72" style="fill:none;stroke:#000000;"/>
   </g>
   <g id="patch_4">
    <path d="
M518.4 197.217
L518.4 72" style="fill:none;stroke:#000000;"/>
   </g>
   <g id="patch_5">
    <path d="
M72 197.217
L518.4 197.217" style="fill:none;stroke:#000000;"/>
   </g>
   <g id="patch_6">
    <path d="
M72 197.217
L72 72" style="fill:none;stroke:#000000;"/>
   </g>
   <g id="text_7">
    <!-- Time step   0 -->
    <defs>
     <path d="
M52 44.1875
Q55.375 50.25 60.0625 53.125
Q64.75 56 71.0938 56
Q79.6406 56 84.2812 50.0156
Q88.9219 44.0469 88.9219 33.0156
L88.9219 0
L79.8906 0
L79.8906 32.7188
Q79.8906 40.5781 77.0938 44.375
Q74.3125 48.1875 68.6094 48.1875
Q61.625 48.1875 57.5625 43.5469
Q53.5156 38.9219 53.5156 30.9062
L53.5156 0
L44.4844 0
L44.4844 32.7188
Q44.4844 40.625 41.7031 44.4062
Q38.9219 48.1875 33.1094 48.1875
Q26.2188 48.1875 22.1562 43.5312
Q18.1094 38.875 18.1094 30.9062
L18.1094 0
L9.07812 0
L9.07812 54.6875
L18.1094 54.6875
L18.1094 46.1875
Q21.1875 51.2188 25.4844 53.6094
Q29.7812 56 35.6875 56
Q41.6562 56 45.8281 52.9688
Q50 49.9531 52 44.1875" id="BitstreamVeraSans-Roman-6d"/>
     <path d="
M-0.296875 72.9062
L61.375 72.9062
L61.375 64.5938
L35.5 64.5938
L35.5 0
L25.5938 0
L25.5938 64.5938
L-0.296875 64.5938
z
" id="BitstreamVeraSans-Roman-54"/>
     <path d="
M44.2812 53.0781
L44.2812 44.5781
Q40.4844 46.5312 36.375 47.5
Q32.2812 48.4844 27.875 48.4844
Q21.1875 48.4844 17.8438 46.4375
Q14.5 44.3906 14.5 40.2812
Q14.5 37.1562 16.8906 35.375
Q19.2812 33.5938 26.5156 31.9844
L29.5938 31.2969
Q39.1562 29.25 43.1875 25.5156
Q47.2188 21.7812 47.2188 15.0938
Q47.2188 7.46875 41.1875 3.01562
Q35.1562 -1.42188 24.6094 -1.42188
Q20.2188 -1.42188 15.4531 -0.5625
Q10.6875 0.296875 5.42188 2
L5.42188 11.2812
Q10.4062 8.6875 15.2344 7.39062
Q20.0625 6.10938 24.8125 6.10938
Q31.1562 6.10938 34.5625 8.28125
Q37.9844 10.4531 37.9844 14.4062
Q37.9844 18.0625 35.5156 20.0156
Q33.0625 21.9688 24.7031 23.7812
L21.5781 24.5156
Q13.2344 26.2656 9.51562 29.9062
Q5.8125 33.5469 5.8125 39.8906
Q5.8125 47.6094 11.2812 51.7969
Q16.75 56 26.8125 56
Q31.7812 56 36.1719 55.2656
Q40.5781 54.5469 44.2812 53.0781" id="BitstreamVeraSans-Roman-73"/>
     <path d="
M18.1094 8.20312
L18.1094 -20.7969
L9.07812 -20.7969
L9.07812 54.6875
L18.1094 54.6875
L18.1094 46.3906
Q20.9531 51.2656 25.2656 53.625
Q29.5938 56 35.5938 56
Q45.5625 56 51.7812 48.0938
Q58.0156 40.1875 58.0156 27.2969
Q58.0156 14.4062 51.7812 6.48438
Q45.5625 -1.42188 35.5938 -1.42188
Q29.5938 -1.42188 25.2656 0.953125
Q20.9531 3.32812 18.1094 8.20312
M48.6875 27.2969
Q48.6875 37.2031 44.6094 42.8438
Q40.5312 48.4844 33.4062 48.4844
Q26.2656 48.4844 22.1875 42.8438
Q18.1094 37.2031 18.1094 27.2969
Q18.1094 17.3906 22.1875 11.75
Q26.2656 6.10938 33.4062 6.10938
Q40.5312 6.10938 44.6094 11.75
Q48.6875 17.3906 48.6875 27.2969" id="BitstreamVeraSans-Roman-70"/>
     <path id="BitstreamVeraSans-Roman-20"/>
    </defs>
    <g transform="translate(233.2425 67.0)scale(0.192 -0.192)">
     <use xlink:href="#BitstreamVeraSans-Roman-54"/>
     <use x="57.958984375" xlink:href="#BitstreamVeraSans-Roman-69"/>
     <use x="85.7421875" xlink:href="#BitstreamVeraSans-Roman-6d"/>
     <use x="183.154296875" xlink:href="#BitstreamVeraSans-Roman-65"/>
     <use x="244.677734375" xlink:href="#BitstreamVeraSans-Roman-20"/>
     <use x="276.46484375" xlink:href="#BitstreamVeraSans-Roman-73"/>
     <use x="328.564453125" xlink:href="#BitstreamVeraSans-Roman-74"/>
     <use x="367.7734375" xlink:href="#BitstreamVeraSans-Roman-65"/>
     <use x="429.296875" xlink:href="#BitstreamVeraSans-Roman-70"/>
     <use x="492.7734375" xlink:href="#BitstreamVeraSans-Roman-20"/>
     <use x="524.560546875" xlink:href="#BitstreamVeraSans-Roman-20"/>
     <use x="556.34765625" xlink:href="#BitstreamVeraSans-Roman-20"/>
     <use x="588.134765625" xlink:href="#BitstreamVeraSans-Roman-30"/>
    </g>
   </g>
  </g>
  <g id="axes_2">
   <g id="patch_7">
    <path d="
M72 347.478
L518.4 347.478
L518.4 222.261
L72 222.261
z
" style="fill:#ffffff;"/>
   </g>
   <g id="PolyCollection_2">
    <defs>
     <path d="
M72 -372.522
L72 -372.522
L76.5091 -372.522
L81.0182 -372.522
L85.5273 -372.522
L90.0364 -372.522
L94.5455 -372.522
L99.0545 -372.522
L103.564 -372.522
L108.073 -372.522
L112.582 -372.522
L117.091 -372.522
L121.6 -372.522
L126.109 -372.522
L130.618 -372.522
L135.127 -372.522
L139.636 -372.522
L144.145 -372.522
L148.655 -372.522
L153.164 -372.522
L157.673 -372.522
L162.182 -372.522
L166.691 -372.522
L171.2 -372.522
L175.709 -372.522
L180.218 -372.522
L184.727 -372.522
L189.236 -372.522
L193.745 -372.522
L198.255 -372.522
L202.764 -372.522
L207.273 -372.522
L211.782 -372.522
L216.291 -372.522
L220.8 -372.522
L225.309 -372.522
L229.818 -372.522
L234.327 -372.522
L238.836 -372.522
L243.345 -372.522
L247.855 -372.522
L252.364 -372.522
L256.873 -372.522
L261.382 -372.522
L265.891 -372.522
L270.4 -372.522
L274.909 -372.522
L279.418 -372.522
L283.927 -372.522
L288.436 -372.522
L292.945 -372.522
L297.455 -372.522
L301.964 -372.522
L306.473 -372.522
L310.982 -372.522
L315.491 -372.522
L320 -372.522
L324.509 -372.522
L329.018 -372.522
L333.527 -372.522
L338.036 -372.522
L342.545 -372.522
L347.055 -372.522
L351.564 -372.522
L356.073 -372.522
L360.582 -372.522
L365.091 -372.522
L369.6 -372.522
L374.109 -372.522
L378.618 -372.522
L383.127 -372.522
L387.636 -372.522
L392.145 -372.522
L396.655 -372.522
L401.164 -372.522
L405.673 -372.522
L410.182 -372.522
L414.691 -372.522
L419.2 -372.522
L423.709 -372.522
L428.218 -372.522
L432.727 -372.522
L437.236 -372.522
L441.745 -372.522
L446.255 -372.522
L450.764 -372.522
L455.273 -372.522
L459.782 -372.522
L464.291 -372.522
L468.8 -372.522
L473.309 -372.522
L477.818 -372.522
L482.327 -372.522
L486.836 -372.522
L491.345 -372.522
L495.855 -372.522
L500.364 -372.522
L504.873 -372.522
L509.382 -372.522
L513.891 -372.522
L518.4 -372.522
L518.4 -372.522
L518.4 -372.522
L513.891 -372.522
L509.382 -372.522
L504.873 -372.522
L500.364 -372.522
L495.855 -372.522
L491.345 -372.522
L486.836 -372.522
L482.327 -372.522
L477.818 -372.522
L473.309 -372.522
L468.8 -372.522
L464.291 -372.522
L459.782 -372.522
L455.273 -372.522
L450.764 -372.522
L446.255 -372.522
L441.745 -372.522
L437.236 -372.522
L432.727 -372.522
L428.218 -372.522
L423.709 -372.522
L419.2 -372.522
L414.691 -372.522
L410.182 -372.522
L405.673 -372.522
L401.164 -372.523
L396.655 -372.525
L392.145 -372.53
L387.636 -372.54
L383.127 -372.564
L378.618 -372.613
L374.109 -372.714
L369.6 -372.909
L365.091 -373.27
L360.582 -373.913
L356.073 -375.006
L351.564 -376.785
L347.055 -379.551
L342.545 -383.656
L338.036 -389.468
L333.527 -397.302
L329.018 -407.337
L324.509 -419.517
L320 -433.472
L315.491 -448.47
L310.982 -463.448
L306.473 -477.112
L301.964 -488.112
L297.455 -495.26
L292.945 -497.739
L288.436 -495.26
L283.927 -488.112
L279.418 -477.112
L274.909 -463.448
L270.4 -448.47
L265.891 -433.472
L261.382 -419.517
L256.873 -407.337
L252.364 -397.302
L247.855 -389.468
L243.345 -383.656
L238.836 -379.551
L234.327 -376.785
L229.818 -375.006
L225.309 -373.913
L220.8 -373.27
L216.291 -372.909
L211.782 -372.714
L207.273 -372.613
L202.764 -372.564
L198.255 -372.54
L193.745 -372.53
L189.236 -372.525
L184.727 -372.523
L180.218 -372.522
L175.709 -372.522
L171.2 -372.522
L166.691 -372.522
L162.182 -372.522
L157.673 -372.522
L153.164 -372.522
L148.655 -372.522
L144.145 -372.522
L139.636 -372.522
L135.127 -372.522
L130.618 -372.522
L126.109 -372.522
L121.6 -372.522
L117.091 -372.522
L112.582 -372.522
L108.073 -372.522
L103.564 -372.522
L99.0545 -372.522
L94.5455 -372.522
L90.0364 -372.522
L85.5273 -372.522
L81.0182 -372.522
L76.5091 -372.522
L72 -372.522
z
" id="C1_0_47afafe3e3"/>
    </defs>
    <g clip-path="url(#p95ac8f10d3)">
     <use style="fill:#0000ff;fill-opacity:0.4;stroke:#0000ff;stroke-opacity:0.4;" x="0.0" xlink:href="#C1_0_47afafe3e3" y="720.0"/>
    </g>
   </g>
   <g id="line2d_29">
    <path clip-path="url(#p95ac8f10d3)" d="
M72 347.478
L76.5091 347.478
L81.0182 347.478
L85.5273 347.478
L90.0364 347.478
L94.5455 347.478
L99.0545 347.478
L103.564 347.478
L108.073 347.478
L112.582 347.478
L117.091 347.478
L121.6 347.478
L126.109 347.478
L130.618 347.478
L135.127 347.478
L139.636 347.478
L144.145 347.478
L148.655 347.478
L153.164 347.478
L157.673 347.478
L162.182 347.478
L166.691 347.478
L171.2 347.478
L175.709 347.478
L180.218 347.478
L184.727 347.477
L189.236 347.475
L193.745 347.47
L198.255 347.46
L202.764 347.436
L207.273 347.387
L211.782 347.286
L216.291 347.091
L220.8 346.73
L225.309 346.087
L229.818 344.994
L234.327 343.215
L238.836 340.449
L243.345 336.344
L247.855 330.532
L252.364 322.698
L256.873 312.663
L261.382 300.483
L265.891 286.528
L270.4 271.53
L274.909 256.552
L279.418 242.888
L283.927 231.888
L288.436 224.74
L292.945 222.261
L297.455 224.74
L301.964 231.888
L306.473 242.888
L310.982 256.552
L315.491 271.53
L320 286.528
L324.509 300.483
L329.018 312.663
L333.527 322.698
L338.036 330.532
L342.545 336.344
L347.055 340.449
L351.564 343.215
L356.073 344.994
L360.582 346.087
L365.091 346.73
L369.6 347.091
L374.109 347.286
L378.618 347.387
L383.127 347.436
L387.636 347.46
L392.145 347.47
L396.655 347.475
L401.164 347.477
L405.673 347.478
L410.182 347.478
L414.691 347.478
L419.2 347.478
L423.709 347.478
L428.218 347.478
L432.727 347.478
L437.236 347.478
L441.745 347.478
L446.255 347.478
L450.764 347.478
L455.273 347.478
L459.782 347.478
L464.291 347.478
L468.8 347.478
L473.309 347.478
L477.818 347.478
L482.327 347.478
L486.836 347.478
L491.345 347.478
L495.855 347.478
L500.364 347.478
L504.873 347.478
L509.382 347.478
L513.891 347.478
L518.4 347.478" style="fill:none;stroke:#0000ff;stroke-linecap:square;"/>
   </g>
   <g id="matplotlib.axis_3">
    <g id="xtick_5">
     <g id="line2d_30">
      <path clip-path="url(#p95ac8f10d3)" d="
M180.218 347.478
L180.218 222.261" style="fill:none;stroke:#000000;stroke-dasharray:1.000000,3.000000;stroke-dashoffset:0.0;stroke-width:0.5;"/>
     </g>
     <g id="line2d_31">
      <g>
       <use style="stroke:#000000;stroke-width:0.5;" x="180.218181818" xlink:href="#m93b0483c22" y="347.47826087"/>
      </g>
     </g>
     <g id="line2d_32">
      <g>
       <use style="stroke:#000000;stroke-width:0.5;" x="180.218181818" xlink:href="#m741efc42ff" y="222.260869565"/>
      </g>
     </g>
    </g>
    <g id="xtick_6">
     <g id="line2d_33">
      <path clip-path="url(#p95ac8f10d3)" d="
M292.945 347.478
L292.945 222.261" style="fill:none;stroke:#000000;stroke-dasharray:1.000000,3.000000;stroke-dashoffset:0.0;stroke-width:0.5;"/>
     </g>
     <g id="line2d_34">
      <g>
       <use style="stroke:#000000;stroke-width:0.5;" x="292.945454545" xlink:href="#m93b0483c22" y="347.47826087"/>
      </g>
     </g>
     <g id="line2d_35">
      <g>
       <use style="stroke:#000000;stroke-width:0.5;" x="292.945454545" xlink:href="#m741efc42ff" y="222.260869565"/>
      </g>
     </g>
    </g>
    <g id="xtick_7">
     <g id="line2d_36">
      <path clip-path="url(#p95ac8f10d3)" d="
M405.673 347.478
L405.673 222.261" style="fill:none;stroke:#000000;stroke-dasharray:1.000000,3.000000;stroke-dashoffset:0.0;stroke-width:0.5;"/>
     </g>
     <g id="line2d_37">
      <g>
       <use style="stroke:#000000;stroke-width:0.5;" x="405.672727273" xlink:href="#m93b0483c22" y="347.47826087"/>
      </g>
     </g>
     <g id="line2d_38">
      <g>
       <use style="stroke:#000000;stroke-width:0.5;" x="405.672727273" xlink:href="#m741efc42ff" y="222.260869565"/>
      </g>
     </g>
    </g>
    <g id="xtick_8">
     <g id="line2d_39">
      <path clip-path="url(#p95ac8f10d3)" d="
M518.4 347.478
L518.4 222.261" style="fill:none;stroke:#000000;stroke-dasharray:1.000000,3.000000;stroke-dashoffset:0.0;stroke-width:0.5;"/>
     </g>
     <g id="line2d_40">
      <g>
       <use style="stroke:#000000;stroke-width:0.5;" x="518.4" xlink:href="#m93b0483c22" y="347.47826087"/>
      </g>
     </g>
     <g id="line2d_41">
      <g>
       <use style="stroke:#000000;stroke-width:0.5;" x="518.4" xlink:href="#m741efc42ff" y="222.260869565"/>
      </g>
     </g>
    </g>
   </g>
   <g id="matplotlib.axis_4">
    <g id="ytick_6">
     <g id="line2d_42">
      <path clip-path="url(#p95ac8f10d3)" d="
M72 347.478
L518.4 347.478" style="fill:none;stroke:#000000;stroke-dasharray:1.000000,3.000000;stroke-dashoffset:0.0;stroke-width:0.5;"/>
     </g>
     <g id="line2d_43">
      <g>
       <use style="stroke:#000000;stroke-width:0.5;" x="72.0" xlink:href="#m728421d6d4" y="347.47826087"/>
      </g>
     </g>
     <g id="line2d_44">
      <g>
       <use style="stroke:#000000;stroke-width:0.5;" x="518.4" xlink:href="#mcb0005524f" y="347.47826087"/>
      </g>
     </g>
     <g id="text_8">
      <!-- 0.00 -->
      <g transform="translate(34.4925 351.89326087)scale(0.16 -0.16)">
       <use xlink:href="#BitstreamVeraSans-Roman-30"/>
       <use x="63.623046875" xlink:href="#BitstreamVeraSans-Roman-2e"/>
       <use x="95.41015625" xlink:href="#BitstreamVeraSans-Roman-30"/>
       <use x="159.033203125" xlink:href="#BitstreamVeraSans-Roman-30"/>
      </g>
     </g>
    </g>
    <g id="ytick_7">
     <g id="line2d_45">
      <path clip-path="url(#p95ac8f10d3)" d="
M72 316.174
L518.4 316.174" style="fill:none;stroke:#000000;stroke-dasharray:1.000000,3.000000;stroke-dashoffset:0.0;stroke-width:0.5;"/>
     </g>
     <g id="line2d_46">
      <g>
       <use style="stroke:#000000;stroke-width:0.5;" x="72.0" xlink:href="#m728421d6d4" y="316.173913043"/>
      </g>
     </g>
     <g id="line2d_47">
      <g>
       <use style="stroke:#000000;stroke-width:0.5;" x="518.4" xlink:href="#mcb0005524f" y="316.173913043"/>
      </g>
     </g>
     <g id="text_9">
      <!-- 0.25 -->
      <g transform="translate(34.8275 320.588913043)scale(0.16 -0.16)">
       <use xlink:href="#BitstreamVeraSans-Roman-30"/>
       <use x="63.623046875" xlink:href="#BitstreamVeraSans-Roman-2e"/>
       <use x="95.41015625" xlink:href="#BitstreamVeraSans-Roman-32"/>
       <use x="159.033203125" xlink:href="#BitstreamVeraSans-Roman-35"/>
      </g>
     </g>
    </g>
    <g id="ytick_8">
     <g id="line2d_48">
      <path clip-path="url(#p95ac8f10d3)" d="
M72 284.87
L518.4 284.87" style="fill:none;stroke:#000000;stroke-dasharray:1.000000,3.000000;stroke-dashoffset:0.0;stroke-width:0.5;"/>
     </g>
     <g id="line2d_49">
      <g>
       <use style="stroke:#000000;stroke-width:0.5;" x="72.0" xlink:href="#m728421d6d4" y="284.869565217"/>
      </g>
     </g>
     <g id="line2d_50">
      <g>
       <use style="stroke:#000000;stroke-width:0.5;" x="518.4" xlink:href="#mcb0005524f" y="284.869565217"/>
      </g>
     </g>
     <g id="text_10">
      <!-- 0.50 -->
      <g transform="translate(34.4925 289.284565217)scale(0.16 -0.16)">
       <use xlink:href="#BitstreamVeraSans-Roman-30"/>
       <use x="63.623046875" xlink:href="#BitstreamVeraSans-Roman-2e"/>
       <use x="95.41015625" xlink:href="#BitstreamVeraSans-Roman-35"/>
       <use x="159.033203125" xlink:href="#BitstreamVeraSans-Roman-30"/>
      </g>
     </g>
    </g>
    <g id="ytick_9">
     <g id="line2d_51">
      <path clip-path="url(#p95ac8f10d3)" d="
M72 253.565
L518.4 253.565" style="fill:none;stroke:#000000;stroke-dasharray:1.000000,3.000000;stroke-dashoffset:0.0;stroke-width:0.5;"/>
     </g>
     <g id="line2d_52">
      <g>
       <use style="stroke:#000000;stroke-width:0.5;" x="72.0" xlink:href="#m728421d6d4" y="253.565217391"/>
      </g>
     </g>
     <g id="line2d_53">
      <g>
       <use style="stroke:#000000;stroke-width:0.5;" x="518.4" xlink:href="#mcb0005524f" y="253.565217391"/>
      </g>
     </g>
     <g id="text_11">
      <!-- 0.75 -->
      <g transform="translate(34.8275 257.980217391)scale(0.16 -0.16)">
       <use xlink:href="#BitstreamVeraSans-Roman-30"/>
       <use x="63.623046875" xlink:href="#BitstreamVeraSans-Roman-2e"/>
       <use x="95.41015625" xlink:href="#BitstreamVeraSans-Roman-37"/>
       <use x="159.033203125" xlink:href="#BitstreamVeraSans-Roman-35"/>
      </g>
     </g>
    </g>
    <g id="ytick_10">
     <g id="line2d_54">
      <path clip-path="url(#p95ac8f10d3)" d="
M72 222.261
L518.4 222.261" style="fill:none;stroke:#000000;stroke-dasharray:1.000000,3.000000;stroke-dashoffset:0.0;stroke-width:0.5;"/>
     </g>
     <g id="line2d_55">
      <g>
       <use style="stroke:#000000;stroke-width:0.5;" x="72.0" xlink:href="#m728421d6d4" y="222.260869565"/>
      </g>
     </g>
     <g id="line2d_56">
      <g>
       <use style="stroke:#000000;stroke-width:0.5;" x="518.4" xlink:href="#mcb0005524f" y="222.260869565"/>
      </g>
     </g>
     <g id="text_12">
      <!-- 1.00 -->
      <g transform="translate(35.195 226.675869565)scale(0.16 -0.16)">
       <use xlink:href="#BitstreamVeraSans-Roman-31"/>
       <use x="63.623046875" xlink:href="#BitstreamVeraSans-Roman-2e"/>
       <use x="95.41015625" xlink:href="#BitstreamVeraSans-Roman-30"/>
       <use x="159.033203125" xlink:href="#BitstreamVeraSans-Roman-30"/>
      </g>
     </g>
    </g>
    <g id="text_13">
     <!-- Height -->
     <g transform="translate(26.165 310.339565217)rotate(-90.0)scale(0.16 -0.16)">
      <use xlink:href="#BitstreamVeraSans-Roman-48"/>
      <use x="75.1953125" xlink:href="#BitstreamVeraSans-Roman-65"/>
      <use x="136.71875" xlink:href="#BitstreamVeraSans-Roman-69"/>
      <use x="164.501953125" xlink:href="#BitstreamVeraSans-Roman-67"/>
      <use x="227.978515625" xlink:href="#BitstreamVeraSans-Roman-68"/>
      <use x="291.357421875" xlink:href="#BitstreamVeraSans-Roman-74"/>
     </g>
    </g>
   </g>
   <g id="patch_8">
    <path d="
M72 222.261
L518.4 222.261" style="fill:none;stroke:#000000;"/>
   </g>
   <g id="patch_9">
    <path d="
M518.4 347.478
L518.4 222.261" style="fill:none;stroke:#000000;"/>
   </g>
   <g id="patch_10">
    <path d="
M72 347.478
L518.4 347.478" style="fill:none;stroke:#000000;"/>
   </g>
   <g id="patch_11">
    <path d="
M72 347.478
L72 222.261" style="fill:none;stroke:#000000;"/>
   </g>
   <g id="text_14">
    <!-- Time step  25 -->
    <g transform="translate(230.3865 217.260869565)scale(0.192 -0.192)">
     <use xlink:href="#BitstreamVeraSans-Roman-54"/>
     <use x="57.958984375" xlink:href="#BitstreamVeraSans-Roman-69"/>
     <use x="85.7421875" xlink:href="#BitstreamVeraSans-Roman-6d"/>
     <use x="183.154296875" xlink:href="#BitstreamVeraSans-Roman-65"/>
     <use x="244.677734375" xlink:href="#BitstreamVeraSans-Roman-20"/>
     <use x="276.46484375" xlink:href="#BitstreamVeraSans-Roman-73"/>
     <use x="328.564453125" xlink:href="#BitstreamVeraSans-Roman-74"/>
     <use x="367.7734375" xlink:href="#BitstreamVeraSans-Roman-65"/>
     <use x="429.296875" xlink:href="#BitstreamVeraSans-Roman-70"/>
     <use x="492.7734375" xlink:href="#BitstreamVeraSans-Roman-20"/>
     <use x="524.560546875" xlink:href="#BitstreamVeraSans-Roman-20"/>
     <use x="556.34765625" xlink:href="#BitstreamVeraSans-Roman-32"/>
     <use x="619.970703125" xlink:href="#BitstreamVeraSans-Roman-35"/>
    </g>
   </g>
  </g>
  <g id="axes_3">
   <g id="patch_12">
    <path d="
M72 497.739
L518.4 497.739
L518.4 372.522
L72 372.522
z
" style="fill:#ffffff;"/>
   </g>
   <g id="PolyCollection_3">
    <defs>
     <path d="
M72 -222.261
L72 -222.261
L76.5091 -222.261
L81.0182 -222.261
L85.5273 -222.261
L90.0364 -222.261
L94.5455 -222.261
L99.0545 -222.261
L103.564 -222.261
L108.073 -222.261
L112.582 -222.261
L117.091 -222.261
L121.6 -222.261
L126.109 -222.261
L130.618 -222.261
L135.127 -222.261
L139.636 -222.261
L144.145 -222.261
L148.655 -222.261
L153.164 -222.261
L157.673 -222.261
L162.182 -222.261
L166.691 -222.261
L171.2 -222.261
L175.709 -222.261
L180.218 -222.261
L184.727 -222.261
L189.236 -222.261
L193.745 -222.261
L198.255 -222.261
L202.764 -222.261
L207.273 -222.261
L211.782 -222.261
L216.291 -222.261
L220.8 -222.261
L225.309 -222.261
L229.818 -222.261
L234.327 -222.261
L238.836 -222.261
L243.345 -222.261
L247.855 -222.261
L252.364 -222.261
L256.873 -222.261
L261.382 -222.261
L265.891 -222.261
L270.4 -222.261
L274.909 -222.261
L279.418 -222.261
L283.927 -222.261
L288.436 -222.261
L292.945 -222.261
L297.455 -222.261
L301.964 -222.261
L306.473 -222.261
L310.982 -222.261
L315.491 -222.261
L320 -222.261
L324.509 -222.261
L329.018 -222.261
L333.527 -222.261
L338.036 -222.261
L342.545 -222.261
L347.055 -222.261
L351.564 -222.261
L356.073 -222.261
L360.582 -222.261
L365.091 -222.261
L369.6 -222.261
L374.109 -222.261
L378.618 -222.261
L383.127 -222.261
L387.636 -222.261
L392.145 -222.261
L396.655 -222.261
L401.164 -222.261
L405.673 -222.261
L410.182 -222.261
L414.691 -222.261
L419.2 -222.261
L423.709 -222.261
L428.218 -222.261
L432.727 -222.261
L437.236 -222.261
L441.745 -222.261
L446.255 -222.261
L450.764 -222.261
L455.273 -222.261
L459.782 -222.261
L464.291 -222.261
L468.8 -222.261
L473.309 -222.261
L477.818 -222.261
L482.327 -222.261
L486.836 -222.261
L491.345 -222.261
L495.855 -222.261
L500.364 -222.261
L504.873 -222.261
L509.382 -222.261
L513.891 -222.261
L518.4 -222.261
L518.4 -222.261
L518.4 -222.261
L513.891 -222.262
L509.382 -222.264
L504.873 -222.269
L500.364 -222.279
L495.855 -222.303
L491.345 -222.353
L486.836 -222.453
L482.327 -222.648
L477.818 -223.009
L473.309 -223.652
L468.8 -224.745
L464.291 -226.524
L459.782 -229.29
L455.273 -233.395
L450.764 -239.207
L446.255 -247.041
L441.745 -257.076
L437.236 -269.256
L432.727 -283.211
L428.218 -298.209
L423.709 -313.187
L419.2 -326.851
L414.691 -337.851
L410.182 -344.999
L405.673 -347.478
L401.164 -344.999
L396.655 -337.851
L392.145 -326.851
L387.636 -313.187
L383.127 -298.209
L378.618 -283.211
L374.109 -269.256
L369.6 -257.076
L365.091 -247.041
L360.582 -239.207
L356.073 -233.395
L351.564 -229.29
L347.055 -226.524
L342.545 -224.745
L338.036 -223.652
L333.527 -223.009
L329.018 -222.648
L324.509 -222.453
L320 -222.353
L315.491 -222.303
L310.982 -222.279
L306.473 -222.269
L301.964 -222.264
L297.455 -222.262
L292.945 -222.261
L288.436 -222.261
L283.927 -222.261
L279.418 -222.261
L274.909 -222.261
L270.4 -222.261
L265.891 -222.261
L261.382 -222.261
L256.873 -222.261
L252.364 -222.261
L247.855 -222.261
L243.345 -222.261
L238.836 -222.261
L234.327 -222.261
L229.818 -222.261
L225.309 -222.261
L220.8 -222.261
L216.291 -222.261
L211.782 -222.261
L207.273 -222.261
L202.764 -222.261
L198.255 -222.261
L193.745 -222.261
L189.236 -222.261
L184.727 -222.261
L180.218 -222.261
L175.709 -222.261
L171.2 -222.261
L166.691 -222.261
L162.182 -222.261
L157.673 -222.261
L153.164 -222.261
L148.655 -222.261
L144.145 -222.261
L139.636 -222.261
L135.127 -222.261
L130.618 -222.261
L126.109 -222.261
L121.6 -222.261
L117.091 -222.261
L112.582 -222.261
L108.073 -222.261
L103.564 -222.261
L99.0545 -222.261
L94.5455 -222.261
L90.0364 -222.261
L85.5273 -222.261
L81.0182 -222.261
L76.5091 -222.261
L72 -222.261
z
" id="C2_0_164df27ac3"/>
    </defs>
    <g clip-path="url(#pef1aa0d10f)">
     <use style="fill:#0000ff;fill-opacity:0.4;stroke:#0000ff;stroke-opacity:0.4;" x="0.0" xlink:href="#C2_0_164df27ac3" y="720.0"/>
    </g>
   </g>
   <g id="line2d_57">
    <path clip-path="url(#pef1aa0d10f)" d="
M72 497.739
L76.5091 497.739
L81.0182 497.739
L85.5273 497.739
L90.0364 497.739
L94.5455 497.739
L99.0545 497.739
L103.564 497.739
L108.073 497.739
L112.582 497.739
L117.091 497.739
L121.6 497.739
L126.109 497.739
L130.618 497.739
L135.127 497.739
L139.636 497.739
L144.145 497.739
L148.655 497.739
L153.164 497.739
L157.673 497.739
L162.182 497.739
L166.691 497.739
L171.2 497.739
L175.709 497.739
L180.218 497.739
L184.727 497.739
L189.236 497.739
L193.745 497.739
L198.255 497.739
L202.764 497.739
L207.273 497.739
L211.782 497.739
L216.291 497.739
L220.8 497.739
L225.309 497.739
L229.818 497.739
L234.327 497.739
L238.836 497.739
L243.345 497.739
L247.855 497.739
L252.364 497.739
L256.873 497.739
L261.382 497.739
L265.891 497.739
L270.4 497.739
L274.909 497.739
L279.418 497.739
L283.927 497.739
L288.436 497.739
L292.945 497.739
L297.455 497.738
L301.964 497.736
L306.473 497.731
L310.982 497.721
L315.491 497.697
L320 497.647
L324.509 497.547
L329.018 497.352
L333.527 496.991
L338.036 496.348
L342.545 495.255
L347.055 493.476
L351.564 490.71
L356.073 486.605
L360.582 480.793
L365.091 472.959
L369.6 462.924
L374.109 450.744
L378.618 436.789
L383.127 421.791
L387.636 406.813
L392.145 393.149
L396.655 382.149
L401.164 375.001
L405.673 372.522
L410.182 375.001
L414.691 382.149
L419.2 393.149
L423.709 406.813
L428.218 421.791
L432.727 436.789
L437.236 450.744
L441.745 462.924
L446.255 472.959
L450.764 480.793
L455.273 486.605
L459.782 490.71
L464.291 493.476
L468.8 495.255
L473.309 496.348
L477.818 496.991
L482.327 497.352
L486.836 497.547
L491.345 497.647
L495.855 497.697
L500.364 497.721
L504.873 497.731
L509.382 497.736
L513.891 497.738
L518.4 497.739" style="fill:none;stroke:#0000ff;stroke-linecap:square;"/>
   </g>
   <g id="matplotlib.axis_5">
    <g id="xtick_9">
     <g id="line2d_58">
      <path clip-path="url(#pef1aa0d10f)" d="
M180.218 497.739
L180.218 372.522" style="fill:none;stroke:#000000;stroke-dasharray:1.000000,3.000000;stroke-dashoffset:0.0;stroke-width:0.5;"/>
     </g>
     <g id="line2d_59">
      <g>
       <use style="stroke:#000000;stroke-width:0.5;" x="180.218181818" xlink:href="#m93b0483c22" y="497.739130435"/>
      </g>
     </g>
     <g id="line2d_60">
      <g>
       <use style="stroke:#000000;stroke-width:0.5;" x="180.218181818" xlink:href="#m741efc42ff" y="372.52173913"/>
      </g>
     </g>
    </g>
    <g id="xtick_10">
     <g id="line2d_61">
      <path clip-path="url(#pef1aa0d10f)" d="
M292.945 497.739
L292.945 372.522" style="fill:none;stroke:#000000;stroke-dasharray:1.000000,3.000000;stroke-dashoffset:0.0;stroke-width:0.5;"/>
     </g>
     <g id="line2d_62">
      <g>
       <use style="stroke:#000000;stroke-width:0.5;" x="292.945454545" xlink:href="#m93b0483c22" y="497.739130435"/>
      </g>
     </g>
     <g id="line2d_63">
      <g>
       <use style="stroke:#000000;stroke-width:0.5;" x="292.945454545" xlink:href="#m741efc42ff" y="372.52173913"/>
      </g>
     </g>
    </g>
    <g id="xtick_11">
     <g id="line2d_64">
      <path clip-path="url(#pef1aa0d10f)" d="
M405.673 497.739
L405.673 372.522" style="fill:none;stroke:#000000;stroke-dasharray:1.000000,3.000000;stroke-dashoffset:0.0;stroke-width:0.5;"/>
     </g>
     <g id="line2d_65">
      <g>
       <use style="stroke:#000000;stroke-width:0.5;" x="405.672727273" xlink:href="#m93b0483c22" y="497.739130435"/>
      </g>
     </g>
     <g id="line2d_66">
      <g>
       <use style="stroke:#000000;stroke-width:0.5;" x="405.672727273" xlink:href="#m741efc42ff" y="372.52173913"/>
      </g>
     </g>
    </g>
    <g id="xtick_12">
     <g id="line2d_67">
      <path clip-path="url(#pef1aa0d10f)" d="
M518.4 497.739
L518.4 372.522" style="fill:none;stroke:#000000;stroke-dasharray:1.000000,3.000000;stroke-dashoffset:0.0;stroke-width:0.5;"/>
     </g>
     <g id="line2d_68">
      <g>
       <use style="stroke:#000000;stroke-width:0.5;" x="518.4" xlink:href="#m93b0483c22" y="497.739130435"/>
      </g>
     </g>
     <g id="line2d_69">
      <g>
       <use style="stroke:#000000;stroke-width:0.5;" x="518.4" xlink:href="#m741efc42ff" y="372.52173913"/>
      </g>
     </g>
    </g>
   </g>
   <g id="matplotlib.axis_6">
    <g id="ytick_11">
     <g id="line2d_70">
      <path clip-path="url(#pef1aa0d10f)" d="
M72 497.739
L518.4 497.739" style="fill:none;stroke:#000000;stroke-dasharray:1.000000,3.000000;stroke-dashoffset:0.0;stroke-width:0.5;"/>
     </g>
     <g id="line2d_71">
      <g>
       <use style="stroke:#000000;stroke-width:0.5;" x="72.0" xlink:href="#m728421d6d4" y="497.739130435"/>
      </g>
     </g>
     <g id="line2d_72">
      <g>
       <use style="stroke:#000000;stroke-width:0.5;" x="518.4" xlink:href="#mcb0005524f" y="497.739130435"/>
      </g>
     </g>
     <g id="text_15">
      <!-- 0.00 -->
      <g transform="translate(34.4925 502.154130435)scale(0.16 -0.16)">
       <use xlink:href="#BitstreamVeraSans-Roman-30"/>
       <use x="63.623046875" xlink:href="#BitstreamVeraSans-Roman-2e"/>
       <use x="95.41015625" xlink:href="#BitstreamVeraSans-Roman-30"/>
       <use x="159.033203125" xlink:href="#BitstreamVeraSans-Roman-30"/>
      </g>
     </g>
    </g>
    <g id="ytick_12">
     <g id="line2d_73">
      <path clip-path="url(#pef1aa0d10f)" d="
M72 466.435
L518.4 466.435" style="fill:none;stroke:#000000;stroke-dasharray:1.000000,3.000000;stroke-dashoffset:0.0;stroke-width:0.5;"/>
     </g>
     <g id="line2d_74">
      <g>
       <use style="stroke:#000000;stroke-width:0.5;" x="72.0" xlink:href="#m728421d6d4" y="466.434782609"/>
      </g>
     </g>
     <g id="line2d_75">
      <g>
       <use style="stroke:#000000;stroke-width:0.5;" x="518.4" xlink:href="#mcb0005524f" y="466.434782609"/>
      </g>
     </g>
     <g id="text_16">
      <!-- 0.25 -->
      <g transform="translate(34.8275 470.849782609)scale(0.16 -0.16)">
       <use xlink:href="#BitstreamVeraSans-Roman-30"/>
       <use x="63.623046875" xlink:href="#BitstreamVeraSans-Roman-2e"/>
       <use x="95.41015625" xlink:href="#BitstreamVeraSans-Roman-32"/>
       <use x="159.033203125" xlink:href="#BitstreamVeraSans-Roman-35"/>
      </g>
     </g>
    </g>
    <g id="ytick_13">
     <g id="line2d_76">
      <path clip-path="url(#pef1aa0d10f)" d="
M72 435.13
L518.4 435.13" style="fill:none;stroke:#000000;stroke-dasharray:1.000000,3.000000;stroke-dashoffset:0.0;stroke-width:0.5;"/>
     </g>
     <g id="line2d_77">
      <g>
       <use style="stroke:#000000;stroke-width:0.5;" x="72.0" xlink:href="#m728421d6d4" y="435.130434783"/>
      </g>
     </g>
     <g id="line2d_78">
      <g>
       <use style="stroke:#000000;stroke-width:0.5;" x="518.4" xlink:href="#mcb0005524f" y="435.130434783"/>
      </g>
     </g>
     <g id="text_17">
      <!-- 0.50 -->
      <g transform="translate(34.4925 439.545434783)scale(0.16 -0.16)">
       <use xlink:href="#BitstreamVeraSans-Roman-30"/>
       <use x="63.623046875" xlink:href="#BitstreamVeraSans-Roman-2e"/>
       <use x="95.41015625" xlink:href="#BitstreamVeraSans-Roman-35"/>
       <use x="159.033203125" xlink:href="#BitstreamVeraSans-Roman-30"/>
      </g>
     </g>
    </g>
    <g id="ytick_14">
     <g id="line2d_79">
      <path clip-path="url(#pef1aa0d10f)" d="
M72 403.826
L518.4 403.826" style="fill:none;stroke:#000000;stroke-dasharray:1.000000,3.000000;stroke-dashoffset:0.0;stroke-width:0.5;"/>
     </g>
     <g id="line2d_80">
      <g>
       <use style="stroke:#000000;stroke-width:0.5;" x="72.0" xlink:href="#m728421d6d4" y="403.826086957"/>
      </g>
     </g>
     <g id="line2d_81">
      <g>
       <use style="stroke:#000000;stroke-width:0.5;" x="518.4" xlink:href="#mcb0005524f" y="403.826086957"/>
      </g>
     </g>
     <g id="text_18">
      <!-- 0.75 -->
      <g transform="translate(34.8275 408.241086957)scale(0.16 -0.16)">
       <use xlink:href="#BitstreamVeraSans-Roman-30"/>
       <use x="63.623046875" xlink:href="#BitstreamVeraSans-Roman-2e"/>
       <use x="95.41015625" xlink:href="#BitstreamVeraSans-Roman-37"/>
       <use x="159.033203125" xlink:href="#BitstreamVeraSans-Roman-35"/>
      </g>
     </g>
    </g>
    <g id="ytick_15">
     <g id="line2d_82">
      <path clip-path="url(#pef1aa0d10f)" d="
M72 372.522
L518.4 372.522" style="fill:none;stroke:#000000;stroke-dasharray:1.000000,3.000000;stroke-dashoffset:0.0;stroke-width:0.5;"/>
     </g>
     <g id="line2d_83">
      <g>
       <use style="stroke:#000000;stroke-width:0.5;" x="72.0" xlink:href="#m728421d6d4" y="372.52173913"/>
      </g>
     </g>
     <g id="line2d_84">
      <g>
       <use style="stroke:#000000;stroke-width:0.5;" x="518.4" xlink:href="#mcb0005524f" y="372.52173913"/>
      </g>
     </g>
     <g id="text_19">
      <!-- 1.00 -->
      <g transform="translate(35.195 376.93673913)scale(0.16 -0.16)">
       <use xlink:href="#BitstreamVeraSans-Roman-31"/>
       <use x="63.623046875" xlink:href="#BitstreamVeraSans-Roman-2e"/>
       <use x="95.41015625" xlink:href="#BitstreamVeraSans-Roman-30"/>
       <use x="159.033203125" xlink:href="#BitstreamVeraSans-Roman-30"/>
      </g>
     </g>
    </g>
    <g id="text_20">
     <!-- Height -->
     <g transform="translate(26.165 460.600434783)rotate(-90.0)scale(0.16 -0.16)">
      <use xlink:href="#BitstreamVeraSans-Roman-48"/>
      <use x="75.1953125" xlink:href="#BitstreamVeraSans-Roman-65"/>
      <use x="136.71875" xlink:href="#BitstreamVeraSans-Roman-69"/>
      <use x="164.501953125" xlink:href="#BitstreamVeraSans-Roman-67"/>
      <use x="227.978515625" xlink:href="#BitstreamVeraSans-Roman-68"/>
      <use x="291.357421875" xlink:href="#BitstreamVeraSans-Roman-74"/>
     </g>
    </g>
   </g>
   <g id="patch_13">
    <path d="
M72 372.522
L518.4 372.522" style="fill:none;stroke:#000000;"/>
   </g>
   <g id="patch_14">
    <path d="
M518.4 497.739
L518.4 372.522" style="fill:none;stroke:#000000;"/>
   </g>
   <g id="patch_15">
    <path d="
M72 497.739
L518.4 497.739" style="fill:none;stroke:#000000;"/>
   </g>
   <g id="patch_16">
    <path d="
M72 497.739
L72 372.522" style="fill:none;stroke:#000000;"/>
   </g>
   <g id="text_21">
    <!-- Time step  50 -->
    <g transform="translate(230.1855 367.52173913)scale(0.192 -0.192)">
     <use xlink:href="#BitstreamVeraSans-Roman-54"/>
     <use x="57.958984375" xlink:href="#BitstreamVeraSans-Roman-69"/>
     <use x="85.7421875" xlink:href="#BitstreamVeraSans-Roman-6d"/>
     <use x="183.154296875" xlink:href="#BitstreamVeraSans-Roman-65"/>
     <use x="244.677734375" xlink:href="#BitstreamVeraSans-Roman-20"/>
     <use x="276.46484375" xlink:href="#BitstreamVeraSans-Roman-73"/>
     <use x="328.564453125" xlink:href="#BitstreamVeraSans-Roman-74"/>
     <use x="367.7734375" xlink:href="#BitstreamVeraSans-Roman-65"/>
     <use x="429.296875" xlink:href="#BitstreamVeraSans-Roman-70"/>
     <use x="492.7734375" xlink:href="#BitstreamVeraSans-Roman-20"/>
     <use x="524.560546875" xlink:href="#BitstreamVeraSans-Roman-20"/>
     <use x="556.34765625" xlink:href="#BitstreamVeraSans-Roman-35"/>
     <use x="619.970703125" xlink:href="#BitstreamVeraSans-Roman-30"/>
    </g>
   </g>
  </g>
  <g id="axes_4">
   <g id="patch_17">
    <path d="
M72 648
L518.4 648
L518.4 522.783
L72 522.783
z
" style="fill:#ffffff;"/>
   </g>
   <g id="PolyCollection_4">
    <defs>
     <path d="
M72 -194.738
L72 -72
L76.5091 -72
L81.0182 -72
L85.5273 -72
L90.0364 -72
L94.5455 -72
L99.0545 -72
L103.564 -72
L108.073 -72
L112.582 -72
L117.091 -72
L121.6 -72
L126.109 -72
L130.618 -72
L135.127 -72
L139.636 -72
L144.145 -72
L148.655 -72
L153.164 -72
L157.673 -72
L162.182 -72
L166.691 -72
L171.2 -72
L175.709 -72
L180.218 -72
L184.727 -72
L189.236 -72
L193.745 -72
L198.255 -72
L202.764 -72
L207.273 -72
L211.782 -72
L216.291 -72
L220.8 -72
L225.309 -72
L229.818 -72
L234.327 -72
L238.836 -72
L243.345 -72
L247.855 -72
L252.364 -72
L256.873 -72
L261.382 -72
L265.891 -72
L270.4 -72
L274.909 -72
L279.418 -72
L283.927 -72
L288.436 -72
L292.945 -72
L297.455 -72
L301.964 -72
L306.473 -72
L310.982 -72
L315.491 -72
L320 -72
L324.509 -72
L329.018 -72
L333.527 -72
L338.036 -72
L342.545 -72
L347.055 -72
L351.564 -72
L356.073 -72
L360.582 -72
L365.091 -72
L369.6 -72
L374.109 -72
L378.618 -72
L383.127 -72
L387.636 -72
L392.145 -72
L396.655 -72
L401.164 -72
L405.673 -72
L410.182 -72
L414.691 -72
L419.2 -72
L423.709 -72
L428.218 -72
L432.727 -72
L437.236 -72
L441.745 -72
L446.255 -72
L450.764 -72
L455.273 -72
L459.782 -72
L464.291 -72
L468.8 -72
L473.309 -72
L477.818 -72
L482.327 -72
L486.836 -72
L491.345 -72
L495.855 -72
L500.364 -72
L504.873 -72
L509.382 -72
L513.891 -72
L518.4 -72
L518.4 -197.217
L518.4 -197.217
L513.891 -194.738
L509.382 -187.59
L504.873 -176.59
L500.364 -162.926
L495.855 -147.948
L491.345 -132.95
L486.836 -118.995
L482.327 -106.815
L477.818 -96.7804
L473.309 -88.9463
L468.8 -83.1345
L464.291 -79.029
L459.782 -76.2633
L455.273 -74.4845
L450.764 -73.391
L446.255 -72.7483
L441.745 -72.3868
L437.236 -72.1921
L432.727 -72.0916
L428.218 -72.042
L423.709 -72.0185
L419.2 -72.0078
L414.691 -72.0032
L410.182 -72.0012
L405.673 -72
L401.164 -72
L396.655 -72
L392.145 -72
L387.636 -72
L383.127 -72
L378.618 -72
L374.109 -72
L369.6 -72
L365.091 -72
L360.582 -72
L356.073 -72
L351.564 -72
L347.055 -72
L342.545 -72
L338.036 -72
L333.527 -72
L329.018 -72
L324.509 -72
L320 -72
L315.491 -72
L310.982 -72
L306.473 -72
L301.964 -72
L297.455 -72
L292.945 -72
L288.436 -72
L283.927 -72
L279.418 -72
L274.909 -72
L270.4 -72
L265.891 -72
L261.382 -72
L256.873 -72
L252.364 -72
L247.855 -72
L243.345 -72
L238.836 -72
L234.327 -72
L229.818 -72
L225.309 -72
L220.8 -72
L216.291 -72
L211.782 -72
L207.273 -72
L202.764 -72
L198.255 -72
L193.745 -72
L189.236 -72.0001
L184.727 -72.0002
L180.218 -72.0005
L175.709 -72.0012
L171.2 -72.0032
L166.691 -72.0078
L162.182 -72.0185
L157.673 -72.042
L153.164 -72.0916
L148.655 -72.1921
L144.145 -72.3868
L139.636 -72.7483
L135.127 -73.391
L130.618 -74.4845
L126.109 -76.2633
L121.6 -79.029
L117.091 -83.1345
L112.582 -88.9463
L108.073 -96.7804
L103.564 -106.815
L99.0545 -118.995
L94.5455 -132.95
L90.0364 -147.948
L85.5273 -162.926
L81.0182 -176.59
L76.5091 -187.59
L72 -194.738
z
" id="C3_0_34407ff3e0"/>
    </defs>
    <g clip-path="url(#pd78d30dd3d)">
     <use style="fill:#0000ff;fill-opacity:0.4;stroke:#0000ff;stroke-opacity:0.4;" x="0.0" xlink:href="#C3_0_34407ff3e0" y="720.0"/>
    </g>
   </g>
   <g id="line2d_85">
    <path clip-path="url(#pd78d30dd3d)" d="
M72 525.262
L76.5091 532.41
L81.0182 543.41
L85.5273 557.074
L90.0364 572.052
L94.5455 587.05
L99.0545 601.005
L103.564 613.185
L108.073 623.22
L112.582 631.054
L117.091 636.865
L121.6 640.971
L126.109 643.737
L130.618 645.516
L135.127 646.609
L139.636 647.252
L144.145 647.613
L148.655 647.808
L153.164 647.908
L157.673 647.958
L162.182 647.981
L166.691 647.992
L171.2 647.997
L175.709 647.999
L180.218 648
L184.727 648
L189.236 648
L193.745 648
L198.255 648
L202.764 648
L207.273 648
L211.782 648
L216.291 648
L220.8 648
L225.309 648
L229.818 648
L234.327 648
L238.836 648
L243.345 648
L247.855 648
L252.364 648
L256.873 648
L261.382 648
L265.891 648
L270.4 648
L274.909 648
L279.418 648
L283.927 648
L288.436 648
L292.945 648
L297.455 648
L301.964 648
L306.473 648
L310.982 648
L315.491 648
L320 648
L324.509 648
L329.018 648
L333.527 648
L338.036 648
L342.545 648
L347.055 648
L351.564 648
L356.073 648
L360.582 648
L365.091 648
L369.6 648
L374.109 648
L378.618 648
L383.127 648
L387.636 648
L392.145 648
L396.655 648
L401.164 648
L405.673 648
L410.182 647.999
L414.691 647.997
L419.2 647.992
L423.709 647.981
L428.218 647.958
L432.727 647.908
L437.236 647.808
L441.745 647.613
L446.255 647.252
L450.764 646.609
L455.273 645.516
L459.782 643.737
L464.291 640.971
L468.8 636.865
L473.309 631.054
L477.818 623.22
L482.327 613.185
L486.836 601.005
L491.345 587.05
L495.855 572.052
L500.364 557.074
L504.873 543.41
L509.382 532.41
L513.891 525.262
L518.4 522.783" style="fill:none;stroke:#0000ff;stroke-linecap:square;"/>
   </g>
   <g id="matplotlib.axis_7">
    <g id="xtick_13">
     <g id="line2d_86">
      <path clip-path="url(#pd78d30dd3d)" d="
M180.218 648
L180.218 522.783" style="fill:none;stroke:#000000;stroke-dasharray:1.000000,3.000000;stroke-dashoffset:0.0;stroke-width:0.5;"/>
     </g>
     <g id="line2d_87">
      <g>
       <use style="stroke:#000000;stroke-width:0.5;" x="180.218181818" xlink:href="#m93b0483c22" y="648.0"/>
      </g>
     </g>
     <g id="line2d_88">
      <g>
       <use style="stroke:#000000;stroke-width:0.5;" x="180.218181818" xlink:href="#m741efc42ff" y="522.782608696"/>
      </g>
     </g>
     <g id="text_22">
      <!-- 25 -->
      <g transform="translate(171.323181818 664.1575)scale(0.16 -0.16)">
       <use xlink:href="#BitstreamVeraSans-Roman-32"/>
       <use x="63.623046875" xlink:href="#BitstreamVeraSans-Roman-35"/>
      </g>
     </g>
    </g>
    <g id="xtick_14">
     <g id="line2d_89">
      <path clip-path="url(#pd78d30dd3d)" d="
M292.945 648
L292.945 522.783" style="fill:none;stroke:#000000;stroke-dasharray:1.000000,3.000000;stroke-dashoffset:0.0;stroke-width:0.5;"/>
     </g>
     <g id="line2d_90">
      <g>
       <use style="stroke:#000000;stroke-width:0.5;" x="292.945454545" xlink:href="#m93b0483c22" y="648.0"/>
      </g>
     </g>
     <g id="line2d_91">
      <g>
       <use style="stroke:#000000;stroke-width:0.5;" x="292.945454545" xlink:href="#m741efc42ff" y="522.782608696"/>
      </g>
     </g>
     <g id="text_23">
      <!-- 50 -->
      <g transform="translate(283.914204545 664.1575)scale(0.16 -0.16)">
       <use xlink:href="#BitstreamVeraSans-Roman-35"/>
       <use x="63.623046875" xlink:href="#BitstreamVeraSans-Roman-30"/>
      </g>
     </g>
    </g>
    <g id="xtick_15">
     <g id="line2d_92">
      <path clip-path="url(#pd78d30dd3d)" d="
M405.673 648
L405.673 522.783" style="fill:none;stroke:#000000;stroke-dasharray:1.000000,3.000000;stroke-dashoffset:0.0;stroke-width:0.5;"/>
     </g>
     <g id="line2d_93">
      <g>
       <use style="stroke:#000000;stroke-width:0.5;" x="405.672727273" xlink:href="#m93b0483c22" y="648.0"/>
      </g>
     </g>
     <g id="line2d_94">
      <g>
       <use style="stroke:#000000;stroke-width:0.5;" x="405.672727273" xlink:href="#m741efc42ff" y="522.782608696"/>
      </g>
     </g>
     <g id="text_24">
      <!-- 75 -->
      <g transform="translate(396.847727273 664.1575)scale(0.16 -0.16)">
       <use xlink:href="#BitstreamVeraSans-Roman-37"/>
       <use x="63.623046875" xlink:href="#BitstreamVeraSans-Roman-35"/>
      </g>
     </g>
    </g>
    <g id="xtick_16">
     <g id="line2d_95">
      <path clip-path="url(#pd78d30dd3d)" d="
M518.4 648
L518.4 522.783" style="fill:none;stroke:#000000;stroke-dasharray:1.000000,3.000000;stroke-dashoffset:0.0;stroke-width:0.5;"/>
     </g>
     <g id="line2d_96">
      <g>
       <use style="stroke:#000000;stroke-width:0.5;" x="518.4" xlink:href="#m93b0483c22" y="648.0"/>
      </g>
     </g>
     <g id="line2d_97">
      <g>
       <use style="stroke:#000000;stroke-width:0.5;" x="518.4" xlink:href="#m741efc42ff" y="522.782608696"/>
      </g>
     </g>
     <g id="text_25">
      <!-- 100 -->
      <g transform="translate(504.54 664.1575)scale(0.16 -0.16)">
       <use xlink:href="#BitstreamVeraSans-Roman-31"/>
       <use x="63.623046875" xlink:href="#BitstreamVeraSans-Roman-30"/>
       <use x="127.24609375" xlink:href="#BitstreamVeraSans-Roman-30"/>
      </g>
     </g>
    </g>
    <g id="text_26">
     <!-- Spatial grid index -->
     <defs>
      <path d="
M54.8906 33.0156
L54.8906 0
L45.9062 0
L45.9062 32.7188
Q45.9062 40.4844 42.875 44.3281
Q39.8438 48.1875 33.7969 48.1875
Q26.5156 48.1875 22.3125 43.5469
Q18.1094 38.9219 18.1094 30.9062
L18.1094 0
L9.07812 0
L9.07812 54.6875
L18.1094 54.6875
L18.1094 46.1875
Q21.3438 51.125 25.7031 53.5625
Q30.0781 56 35.7969 56
Q45.2188 56 50.0469 50.1719
Q54.8906 44.3438 54.8906 33.0156" id="BitstreamVeraSans-Roman-6e"/>
      <path d="
M34.2812 27.4844
Q23.3906 27.4844 19.1875 25
Q14.9844 22.5156 14.9844 16.5
Q14.9844 11.7188 18.1406 8.90625
Q21.2969 6.10938 26.7031 6.10938
Q34.1875 6.10938 38.7031 11.4062
Q43.2188 16.7031 43.2188 25.4844
L43.2188 27.4844
z

M52.2031 31.2031
L52.2031 0
L43.2188 0
L43.2188 8.29688
Q40.1406 3.32812 35.5469 0.953125
Q30.9531 -1.42188 24.3125 -1.42188
Q15.9219 -1.42188 10.9531 3.29688
Q6 8.01562 6 15.9219
Q6 25.1406 12.1719 29.8281
Q18.3594 34.5156 30.6094 34.5156
L43.2188 34.5156
L43.2188 35.4062
Q43.2188 41.6094 39.1406 45
Q35.0625 48.3906 27.6875 48.3906
Q23 48.3906 18.5469 47.2656
Q14.1094 46.1406 10.0156 43.8906
L10.0156 52.2031
Q14.9375 54.1094 19.5781 55.0469
Q24.2188 56 28.6094 56
Q40.4844 56 46.3438 49.8438
Q52.2031 43.7031 52.2031 31.2031" id="BitstreamVeraSans-Roman-61"/>
      <path d="
M9.42188 75.9844
L18.4062 75.9844
L18.4062 0
L9.42188 0
z
" id="BitstreamVeraSans-Roman-6c"/>
      <path d="
M53.5156 70.5156
L53.5156 60.8906
Q47.9062 63.5781 42.9219 64.8906
Q37.9375 66.2188 33.2969 66.2188
Q25.25 66.2188 20.875 63.0938
Q16.5 59.9688 16.5 54.2031
Q16.5 49.3594 19.4062 46.8906
Q22.3125 44.4375 30.4219 42.9219
L36.375 41.7031
Q47.4062 39.5938 52.6562 34.2969
Q57.9062 29 57.9062 20.125
Q57.9062 9.51562 50.7969 4.04688
Q43.7031 -1.42188 29.9844 -1.42188
Q24.8125 -1.42188 18.9688 -0.25
Q13.1406 0.921875 6.89062 3.21875
L6.89062 13.375
Q12.8906 10.0156 18.6562 8.29688
Q24.4219 6.59375 29.9844 6.59375
Q38.4219 6.59375 43.0156 9.90625
Q47.6094 13.2344 47.6094 19.3906
Q47.6094 24.75 44.3125 27.7812
Q41.0156 30.8125 33.5 32.3281
L27.4844 33.5
Q16.4531 35.6875 11.5156 40.375
Q6.59375 45.0625 6.59375 53.4219
Q6.59375 63.0938 13.4062 68.6562
Q20.2188 74.2188 32.1719 74.2188
Q37.3125 74.2188 42.625 73.2812
Q47.9531 72.3594 53.5156 70.5156" id="BitstreamVeraSans-Roman-53"/>
      <path d="
M54.8906 54.6875
L35.1094 28.0781
L55.9062 0
L45.3125 0
L29.3906 21.4844
L13.4844 0
L2.875 0
L24.125 28.6094
L4.6875 54.6875
L15.2812 54.6875
L29.7812 35.2031
L44.2812 54.6875
z
" id="BitstreamVeraSans-Roman-78"/>
      <path d="
M45.4062 46.3906
L45.4062 75.9844
L54.3906 75.9844
L54.3906 0
L45.4062 0
L45.4062 8.20312
Q42.5781 3.32812 38.25 0.953125
Q33.9375 -1.42188 27.875 -1.42188
Q17.9688 -1.42188 11.7344 6.48438
Q5.51562 14.4062 5.51562 27.2969
Q5.51562 40.1875 11.7344 48.0938
Q17.9688 56 27.875 56
Q33.9375 56 38.25 53.625
Q42.5781 51.2656 45.4062 46.3906
M14.7969 27.2969
Q14.7969 17.3906 18.875 11.75
Q22.9531 6.10938 30.0781 6.10938
Q37.2031 6.10938 41.2969 11.75
Q45.4062 17.3906 45.4062 27.2969
Q45.4062 37.2031 41.2969 42.8438
Q37.2031 48.4844 30.0781 48.4844
Q22.9531 48.4844 18.875 42.8438
Q14.7969 37.2031 14.7969 27.2969" id="BitstreamVeraSans-Roman-64"/>
      <path d="
M41.1094 46.2969
Q39.5938 47.1719 37.8125 47.5781
Q36.0312 48 33.8906 48
Q26.2656 48 22.1875 43.0469
Q18.1094 38.0938 18.1094 28.8125
L18.1094 0
L9.07812 0
L9.07812 54.6875
L18.1094 54.6875
L18.1094 46.1875
Q20.9531 51.1719 25.4844 53.5781
Q30.0312 56 36.5312 56
Q37.4531 56 38.5781 55.875
Q39.7031 55.7656 41.0625 55.5156
z
" id="BitstreamVeraSans-Roman-72"/>
     </defs>
     <g transform="translate(225.27625 684.6425)scale(0.16 -0.16)">
      <use xlink:href="#BitstreamVeraSans-Roman-53"/>
      <use x="63.4765625" xlink:href="#BitstreamVeraSans-Roman-70"/>
      <use x="126.953125" xlink:href="#BitstreamVeraSans-Roman-61"/>
      <use x="188.232421875" xlink:href="#BitstreamVeraSans-Roman-74"/>
      <use x="227.44140625" xlink:href="#BitstreamVeraSans-Roman-69"/>
      <use x="255.224609375" xlink:href="#BitstreamVeraSans-Roman-61"/>
      <use x="316.50390625" xlink:href="#BitstreamVeraSans-Roman-6c"/>
      <use x="344.287109375" xlink:href="#BitstreamVeraSans-Roman-20"/>
      <use x="376.07421875" xlink:href="#BitstreamVeraSans-Roman-67"/>
      <use x="439.55078125" xlink:href="#BitstreamVeraSans-Roman-72"/>
      <use x="480.6640625" xlink:href="#BitstreamVeraSans-Roman-69"/>
      <use x="508.447265625" xlink:href="#BitstreamVeraSans-Roman-64"/>
      <use x="571.923828125" xlink:href="#BitstreamVeraSans-Roman-20"/>
      <use x="603.7109375" xlink:href="#BitstreamVeraSans-Roman-69"/>
      <use x="631.494140625" xlink:href="#BitstreamVeraSans-Roman-6e"/>
      <use x="694.873046875" xlink:href="#BitstreamVeraSans-Roman-64"/>
      <use x="758.349609375" xlink:href="#BitstreamVeraSans-Roman-65"/>
      <use x="818.123046875" xlink:href="#BitstreamVeraSans-Roman-78"/>
     </g>
    </g>
   </g>
   <g id="matplotlib.axis_8">
    <g id="ytick_16">
     <g id="line2d_98">
      <path clip-path="url(#pd78d30dd3d)" d="
M72 648
L518.4 648" style="fill:none;stroke:#000000;stroke-dasharray:1.000000,3.000000;stroke-dashoffset:0.0;stroke-width:0.5;"/>
     </g>
     <g id="line2d_99">
      <g>
       <use style="stroke:#000000;stroke-width:0.5;" x="72.0" xlink:href="#m728421d6d4" y="648.0"/>
      </g>
     </g>
     <g id="line2d_100">
      <g>
       <use style="stroke:#000000;stroke-width:0.5;" x="518.4" xlink:href="#mcb0005524f" y="648.0"/>
      </g>
     </g>
     <g id="text_27">
      <!-- 0.00 -->
      <g transform="translate(34.4925 652.415)scale(0.16 -0.16)">
       <use xlink:href="#BitstreamVeraSans-Roman-30"/>
       <use x="63.623046875" xlink:href="#BitstreamVeraSans-Roman-2e"/>
       <use x="95.41015625" xlink:href="#BitstreamVeraSans-Roman-30"/>
       <use x="159.033203125" xlink:href="#BitstreamVeraSans-Roman-30"/>
      </g>
     </g>
    </g>
    <g id="ytick_17">
     <g id="line2d_101">
      <path clip-path="url(#pd78d30dd3d)" d="
M72 616.696
L518.4 616.696" style="fill:none;stroke:#000000;stroke-dasharray:1.000000,3.000000;stroke-dashoffset:0.0;stroke-width:0.5;"/>
     </g>
     <g id="line2d_102">
      <g>
       <use style="stroke:#000000;stroke-width:0.5;" x="72.0" xlink:href="#m728421d6d4" y="616.695652174"/>
      </g>
     </g>
     <g id="line2d_103">
      <g>
       <use style="stroke:#000000;stroke-width:0.5;" x="518.4" xlink:href="#mcb0005524f" y="616.695652174"/>
      </g>
     </g>
     <g id="text_28">
      <!-- 0.25 -->
      <g transform="translate(34.8275 621.110652174)scale(0.16 -0.16)">
       <use xlink:href="#BitstreamVeraSans-Roman-30"/>
       <use x="63.623046875" xlink:href="#BitstreamVeraSans-Roman-2e"/>
       <use x="95.41015625" xlink:href="#BitstreamVeraSans-Roman-32"/>
       <use x="159.033203125" xlink:href="#BitstreamVeraSans-Roman-35"/>
      </g>
     </g>
    </g>
    <g id="ytick_18">
     <g id="line2d_104">
      <path clip-path="url(#pd78d30dd3d)" d="
M72 585.391
L518.4 585.391" style="fill:none;stroke:#000000;stroke-dasharray:1.000000,3.000000;stroke-dashoffset:0.0;stroke-width:0.5;"/>
     </g>
     <g id="line2d_105">
      <g>
       <use style="stroke:#000000;stroke-width:0.5;" x="72.0" xlink:href="#m728421d6d4" y="585.391304348"/>
      </g>
     </g>
     <g id="line2d_106">
      <g>
       <use style="stroke:#000000;stroke-width:0.5;" x="518.4" xlink:href="#mcb0005524f" y="585.391304348"/>
      </g>
     </g>
     <g id="text_29">
      <!-- 0.50 -->
      <g transform="translate(34.4925 589.806304348)scale(0.16 -0.16)">
       <use xlink:href="#BitstreamVeraSans-Roman-30"/>
       <use x="63.623046875" xlink:href="#BitstreamVeraSans-Roman-2e"/>
       <use x="95.41015625" xlink:href="#BitstreamVeraSans-Roman-35"/>
       <use x="159.033203125" xlink:href="#BitstreamVeraSans-Roman-30"/>
      </g>
     </g>
    </g>
    <g id="ytick_19">
     <g id="line2d_107">
      <path clip-path="url(#pd78d30dd3d)" d="
M72 554.087
L518.4 554.087" style="fill:none;stroke:#000000;stroke-dasharray:1.000000,3.000000;stroke-dashoffset:0.0;stroke-width:0.5;"/>
     </g>
     <g id="line2d_108">
      <g>
       <use style="stroke:#000000;stroke-width:0.5;" x="72.0" xlink:href="#m728421d6d4" y="554.086956522"/>
      </g>
     </g>
     <g id="line2d_109">
      <g>
       <use style="stroke:#000000;stroke-width:0.5;" x="518.4" xlink:href="#mcb0005524f" y="554.086956522"/>
      </g>
     </g>
     <g id="text_30">
      <!-- 0.75 -->
      <g transform="translate(34.8275 558.501956522)scale(0.16 -0.16)">
       <use xlink:href="#BitstreamVeraSans-Roman-30"/>
       <use x="63.623046875" xlink:href="#BitstreamVeraSans-Roman-2e"/>
       <use x="95.41015625" xlink:href="#BitstreamVeraSans-Roman-37"/>
       <use x="159.033203125" xlink:href="#BitstreamVeraSans-Roman-35"/>
      </g>
     </g>
    </g>
    <g id="ytick_20">
     <g id="line2d_110">
      <path clip-path="url(#pd78d30dd3d)" d="
M72 522.783
L518.4 522.783" style="fill:none;stroke:#000000;stroke-dasharray:1.000000,3.000000;stroke-dashoffset:0.0;stroke-width:0.5;"/>
     </g>
     <g id="line2d_111">
      <g>
       <use style="stroke:#000000;stroke-width:0.5;" x="72.0" xlink:href="#m728421d6d4" y="522.782608696"/>
      </g>
     </g>
     <g id="line2d_112">
      <g>
       <use style="stroke:#000000;stroke-width:0.5;" x="518.4" xlink:href="#mcb0005524f" y="522.782608696"/>
      </g>
     </g>
     <g id="text_31">
      <!-- 1.00 -->
      <g transform="translate(35.195 527.197608696)scale(0.16 -0.16)">
       <use xlink:href="#BitstreamVeraSans-Roman-31"/>
       <use x="63.623046875" xlink:href="#BitstreamVeraSans-Roman-2e"/>
       <use x="95.41015625" xlink:href="#BitstreamVeraSans-Roman-30"/>
       <use x="159.033203125" xlink:href="#BitstreamVeraSans-Roman-30"/>
      </g>
     </g>
    </g>
    <g id="text_32">
     <!-- Height -->
     <g transform="translate(26.165 610.861304348)rotate(-90.0)scale(0.16 -0.16)">
      <use xlink:href="#BitstreamVeraSans-Roman-48"/>
      <use x="75.1953125" xlink:href="#BitstreamVeraSans-Roman-65"/>
      <use x="136.71875" xlink:href="#BitstreamVeraSans-Roman-69"/>
      <use x="164.501953125" xlink:href="#BitstreamVeraSans-Roman-67"/>
      <use x="227.978515625" xlink:href="#BitstreamVeraSans-Roman-68"/>
      <use x="291.357421875" xlink:href="#BitstreamVeraSans-Roman-74"/>
     </g>
    </g>
   </g>
   <g id="patch_18">
    <path d="
M72 522.783
L518.4 522.783" style="fill:none;stroke:#000000;"/>
   </g>
   <g id="patch_19">
    <path d="
M518.4 648
L518.4 522.783" style="fill:none;stroke:#000000;"/>
   </g>
   <g id="patch_20">
    <path d="
M72 648
L518.4 648" style="fill:none;stroke:#000000;"/>
   </g>
   <g id="patch_21">
    <path d="
M72 648
L72 522.783" style="fill:none;stroke:#000000;"/>
   </g>
   <g id="text_33">
    <!-- Time step  75 -->
    <g transform="translate(230.3865 517.782608696)scale(0.192 -0.192)">
     <use xlink:href="#BitstreamVeraSans-Roman-54"/>
     <use x="57.958984375" xlink:href="#BitstreamVeraSans-Roman-69"/>
     <use x="85.7421875" xlink:href="#BitstreamVeraSans-Roman-6d"/>
     <use x="183.154296875" xlink:href="#BitstreamVeraSans-Roman-65"/>
     <use x="244.677734375" xlink:href="#BitstreamVeraSans-Roman-20"/>
     <use x="276.46484375" xlink:href="#BitstreamVeraSans-Roman-73"/>
     <use x="328.564453125" xlink:href="#BitstreamVeraSans-Roman-74"/>
     <use x="367.7734375" xlink:href="#BitstreamVeraSans-Roman-65"/>
     <use x="429.296875" xlink:href="#BitstreamVeraSans-Roman-70"/>
     <use x="492.7734375" xlink:href="#BitstreamVeraSans-Roman-20"/>
     <use x="524.560546875" xlink:href="#BitstreamVeraSans-Roman-20"/>
     <use x="556.34765625" xlink:href="#BitstreamVeraSans-Roman-37"/>
     <use x="619.970703125" xlink:href="#BitstreamVeraSans-Roman-35"/>
    </g>
   </g>
  </g>
 </g>
 <defs>
  <clipPath id="p8ef58222ed">
   <rect height="125.217391304" width="446.4" x="72.0" y="72.0"/>
  </clipPath>
  <clipPath id="pef1aa0d10f">
   <rect height="125.217391304" width="446.4" x="72.0" y="372.52173913"/>
  </clipPath>
  <clipPath id="p95ac8f10d3">
   <rect height="125.217391304" width="446.4" x="72.0" y="222.260869565"/>
  </clipPath>
  <clipPath id="pd78d30dd3d">
   <rect height="125.217391304" width="446.4" x="72.0" y="522.782608696"/>
  </clipPath>
 </defs>
</svg>
